<?xml version="1.0" encoding="UTF-8" standalone="no"?>
<svg
   xmlns:dc="http://purl.org/dc/elements/1.1/"
   xmlns:cc="http://creativecommons.org/ns#"
   xmlns:rdf="http://www.w3.org/1999/02/22-rdf-syntax-ns#"
   xmlns:svg="http://www.w3.org/2000/svg"
   xmlns="http://www.w3.org/2000/svg"
   id="svg8"
   version="1.1"
   viewBox="0 0 328.90143 38.3032"
   height="38.3032mm"
   width="328.90143mm">
  <defs
     id="defs2" />
  <metadata
     id="metadata5">
    <rdf:RDF>
      <cc:Work
         rdf:about="">
        <dc:format>image/svg+xml</dc:format>
        <dc:type
           rdf:resource="http://purl.org/dc/dcmitype/StillImage" />
        <dc:title></dc:title>
      </cc:Work>
    </rdf:RDF>
  </metadata>
  <g
     transform="translate(118.4405,121.73047)"
     id="layer1">
    <g
       id="text814"
       style="font-style:normal;font-weight:normal;font-size:4.23333311px;line-height:1.25;font-family:sans-serif;letter-spacing:0px;word-spacing:0px;fill:#ddd;fill-opacity:1;stroke:none;stroke-width:0.26458332"
       aria-label="ESTONIA 1914">
      <path
         id="path859"
         style="font-style:normal;font-variant:normal;font-weight:bold;font-stretch:normal;font-size:50.79999924px;font-family:Poppins;-inkscape-font-specification:'Poppins Bold';stroke-width:0.26458332"
         d="m -109.7537,-112.48487 v 7.2136 h 11.633196 v 6.705595 H -109.7537 v 7.8232 h 13.157196 v 6.9596 H -118.4405 v -35.661595 h 21.843996 v 6.9596 z" />
      <path
         id="path861"
         style="font-style:normal;font-variant:normal;font-weight:bold;font-stretch:normal;font-size:50.79999924px;font-family:Poppins;-inkscape-font-specification:'Poppins Bold';stroke-width:0.26458332"
         d="m -78.05371,-83.427275 q -3.9116,0 -7.0104,-1.27 -3.0988,-1.27 -4.9784,-3.7592 -1.8288,-2.4892 -1.9304,-5.9944 h 9.2456 q 0.2032,1.9812 1.3716,3.048 1.1684,1.016 3.048,1.016 1.9304,0 3.048,-0.8636 1.1176,-0.9144 1.1176,-2.4892 0,-1.3208 -0.9144,-2.1844 -0.8636,-0.8636 -2.1844,-1.4224 -1.27,-0.5588 -3.6576,-1.27 -3.4544,-1.0668 -5.6388,-2.133595 -2.1844,-1.0668 -3.7592,-3.1496 -1.5748,-2.0828 -1.5748,-5.4356 0,-4.9784 3.6068,-7.7724 3.6068,-2.8448 9.398,-2.8448 5.8928,0 9.499599,2.8448 3.6068,2.794 3.8608,7.8232 h -9.397999 q -0.1016,-1.7272 -1.27,-2.6924 -1.1684,-1.016 -2.9972,-1.016 -1.5748,0 -2.54,0.8636 -0.9652,0.8128 -0.9652,2.3876 0,1.7272 1.6256,2.6924 1.6256,0.9652 5.08,2.0828 3.4544,1.1684 5.587999,2.2352 2.1844,1.0668 3.7592,3.098795 1.5748,2.032 1.5748,5.2324 0,3.048 -1.5748,5.5372 -1.524,2.4892 -4.4704,3.9624 -2.946399,1.4732 -6.959599,1.4732 z" />
      <path
         id="path863"
         style="font-style:normal;font-variant:normal;font-weight:bold;font-stretch:normal;font-size:50.79999924px;font-family:Poppins;-inkscape-font-specification:'Poppins Bold';stroke-width:0.26458332"
         d="m -34.049004,-119.44447 v 6.9596 h -9.4488 v 28.701995 h -8.6868 v -28.701995 h -9.4488 v -6.9596 z" />
      <path
         id="path865"
         style="font-style:normal;font-variant:normal;font-weight:bold;font-stretch:normal;font-size:50.79999924px;font-family:Poppins;-inkscape-font-specification:'Poppins Bold';stroke-width:0.26458332"
         d="m -12.774122,-83.427275 q -5.0292,0 -9.2456,-2.3368 -4.1656,-2.3368 -6.6548,-6.5024 -2.4384,-4.2164 -2.4384,-9.448795 0,-5.2324 2.4384,-9.398 2.4892,-4.1656 6.6548,-6.5024 4.2164,-2.3368 9.2456,-2.3368 5.0291997,0 9.1947997,2.3368 4.2163999,2.3368 6.6039999,6.5024 2.4383999,4.1656 2.4383999,9.398 0,5.232395 -2.4383999,9.448795 -2.4384,4.1656 -6.6039999,6.5024 -4.1656,2.3368 -9.1947997,2.3368 z m 0,-7.9248 q 4.2671997,0 6.8071997,-2.8448 2.5908,-2.8448 2.5908,-7.518395 0,-4.7244 -2.5908,-7.5184 -2.54,-2.8448 -6.8071997,-2.8448 -4.318,0 -6.9088,2.794 -2.54,2.794 -2.54,7.5692 0,4.724395 2.54,7.569195 2.5908,2.794 6.9088,2.794 z" />
      <path
         id="path867"
         style="font-style:normal;font-variant:normal;font-weight:bold;font-stretch:normal;font-size:50.79999924px;font-family:Poppins;-inkscape-font-specification:'Poppins Bold';stroke-width:0.26458332"
         d="m 42.148618,-83.782875 h -8.6868 l -14.5288,-21.996395 v 21.996395 h -8.686799 v -35.661595 h 8.686799 l 14.5288,22.097995 v -22.097995 h 8.6868 z" />
      <path
         id="path869"
         style="font-style:normal;font-variant:normal;font-weight:bold;font-stretch:normal;font-size:50.79999924px;font-family:Poppins;-inkscape-font-specification:'Poppins Bold';stroke-width:0.26458332"
         d="m 57.132237,-119.44447 v 35.661595 h -8.6868 v -35.661595 z" />
      <path
         id="path871"
         style="font-style:normal;font-variant:normal;font-weight:bold;font-stretch:normal;font-size:50.79999924px;font-family:Poppins;-inkscape-font-specification:'Poppins Bold';stroke-width:0.26458332"
         d="m 85.627062,-90.082075 h -13.3096 l -2.1336,6.2992 h -9.093199 l 12.903199,-35.661595 h 10.0584 l 12.9032,35.661595 h -9.1948 z m -2.2352,-6.7056 -4.4196,-13.055595 -4.3688,13.055595 z" />
      <path
         id="path873"
         style="font-style:normal;font-variant:normal;font-weight:bold;font-stretch:normal;font-size:50.79999924px;font-family:Poppins;-inkscape-font-specification:'Poppins Bold';stroke-width:0.26458332"
         d="m 109.86977,-112.78967 v -8.0772 h 14.0716 v 37.083995 h -9.0424 v -29.006795 z" />
      <path
         id="path875"
         style="font-style:normal;font-variant:normal;font-weight:bold;font-stretch:normal;font-size:50.79999924px;font-family:Poppins;-inkscape-font-specification:'Poppins Bold';stroke-width:0.26458332"
         d="m 139.28058,-94.654075 q 0.762,4.0132 4.6736,4.0132 2.6924,0 3.81,-2.3876 1.1176,-2.3876 1.1176,-7.772395 -1.1176,1.574795 -3.048,2.438395 -1.9304,0.8636 -4.318,0.8636 -3.2512,0 -5.7912,-1.3208 -2.54,-1.371595 -4.0132,-4.013195 -1.4224,-2.6924 -1.4224,-6.5024 0,-3.7592 1.524,-6.5532 1.5748,-2.794 4.4196,-4.318 2.8956,-1.524 6.8072,-1.524 7.5184,0 10.5156,4.6736 2.9972,4.6736 2.9972,13.7668 0,6.603995 -1.2192,10.921995 -1.1684,4.2672 -4.0132,6.5024 -2.794,2.2352 -7.6708,2.2352 -3.8608,0 -6.604,-1.524 -2.6924,-1.524 -4.1656,-4.0132 -1.4224,-2.4892 -1.6256,-5.4864 z m 4.2164,-9.702795 q 2.1336,0 3.4036,-1.27 1.27,-1.3208 1.27,-3.556 0,-2.4384 -1.3208,-3.7592 -1.3208,-1.3208 -3.556,-1.3208 -2.2352,0 -3.556,1.3716 -1.27,1.3208 -1.27,3.6576 0,2.1844 1.27,3.556 1.3208,1.3208 3.7592,1.3208 z" />
      <path
         id="path877"
         style="font-style:normal;font-variant:normal;font-weight:bold;font-stretch:normal;font-size:50.79999924px;font-family:Poppins;-inkscape-font-specification:'Poppins Bold';stroke-width:0.26458332"
         d="m 160.27289,-112.78967 v -8.0772 h 14.0716 v 37.083995 h -9.0424 v -29.006795 z" />
      <path
         id="path879"
         style="font-style:normal;font-variant:normal;font-weight:bold;font-stretch:normal;font-size:50.79999924px;font-family:Poppins;-inkscape-font-specification:'Poppins Bold';stroke-width:0.26458332"
         d="m 180.53972,-90.386875 v -7.0104 l 16.0528,-22.961595 h 9.7028 v 22.453595 h 4.1656 v 7.5184 h -4.1656 v 6.604 h -8.6868 v -6.604 z m 17.6784,-20.421595 -8.5344,12.903195 h 8.5344 z" />
    </g>
  </g>
</svg>
