<?xml version="1.0" encoding="UTF-8" standalone="no"?>
<!-- Created with Inkscape (http://www.inkscape.org/) -->

<svg
   xmlns:dc="http://purl.org/dc/elements/1.1/"
   xmlns:cc="http://creativecommons.org/ns#"
   xmlns:rdf="http://www.w3.org/1999/02/22-rdf-syntax-ns#"
   xmlns:svg="http://www.w3.org/2000/svg"
   xmlns="http://www.w3.org/2000/svg"
   xmlns:sodipodi="http://sodipodi.sourceforge.net/DTD/sodipodi-0.dtd"
   xmlns:inkscape="http://www.inkscape.org/namespaces/inkscape"
   width="1376.2922"
   height="238.40163"
   id="svg2"
   version="1.1"
   inkscape:version="0.92.3 (2405546, 2018-03-11)"
   sodipodi:docname="logo-firma.svg"
   viewBox="0 0 1514.42 262.24179"
   inkscape:export-filename="/media/nahuel/Disco de DATOS/DATOS/Documentos Nahuel/diseño web/sitios/sitioalex/recursos/logo.png"
   inkscape:export-xdpi="96"
   inkscape:export-ydpi="96">
  <defs
     id="defs4" />
  <sodipodi:namedview
     id="base"
     pagecolor="#ffffff"
     bordercolor="#666666"
     borderopacity="1.0"
     inkscape:pageopacity="0.0"
     inkscape:pageshadow="2"
     inkscape:zoom="0.49497475"
     inkscape:cx="-261.37699"
     inkscape:cy="208.77966"
     inkscape:document-units="px"
     inkscape:current-layer="layer1"
     showgrid="false"
     fit-margin-top="0.4"
     fit-margin-left="0"
     fit-margin-right="0"
     fit-margin-bottom="0"
     showguides="true"
     inkscape:guide-bbox="true"
     inkscape:window-width="1920"
     inkscape:window-height="1031"
     inkscape:window-x="0"
     inkscape:window-y="25"
     inkscape:window-maximized="1"
     viewbox-width="1514.42" />
  <metadata
     id="metadata7">
    <rdf:RDF>
      <cc:Work
         rdf:about="">
        <dc:format>image/svg+xml</dc:format>
        <dc:type
           rdf:resource="http://purl.org/dc/dcmitype/StillImage" />
        <dc:title></dc:title>
      </cc:Work>
    </rdf:RDF>
  </metadata>
  <g
     inkscape:label="Capa 1"
     inkscape:groupmode="layer"
     id="layer1"
     transform="translate(1653.8706,1624.6452)">
    <path
       style="fill:#000000;stroke-width:1.0666666"
       d="m -985.50746,-1364.1381 c -7.42855,-2.6266 -8.95057,-6.0736 -8.38825,-18.9977 0.32082,-7.3732 1.16123,-12.4851 2.72192,-16.556 2.76281,-6.7549 6.34834,-13.086 10.82046,-18.7762 0,-0.5478 3.23181,-4.1022 7.1818,-7.8986 3.94999,-3.7964 1.89878,-2.0026 4.1894,-4.0531 l 2.9056,-2.7859 c -0.79831,-2.0803 61.66405,-61.5449 63.11915,-60.0898 l 0.96048,-0.3109 c -0.31813,-0.5148 0.16587,-2.0719 1.07556,-3.4602 1.85571,-2.8322 4.68668,-15.089 8.02192,-34.7313 1.38687,-8.1677 3.24758,-15.1826 4.88353,-18.411 1.45365,-2.8686 3.78377,-9.4107 5.17806,-14.538 1.39431,-5.1273 5.01358,-14.4674 8.04284,-20.7557 6.66095,-13.8273 6.92019,-18.0355 1.34186,-21.7817 -4.39241,-2.9498 -6.40423,-2.4655 -21.50867,5.1773 -7.85648,3.9754 -13.29354,7.6525 -18.43917,12.4706 -7.5172,7.0386 -24.86201,29.1335 -28.5589,36.38 -4.14169,8.1184 -7.46012,19.9612 -7.46012,26.6237 0,10.7567 4.1829,13.2439 25.08654,14.9171 6.05468,0.4846 11.52713,1.2016 12.16099,1.5933 1.78488,1.1032 1.36085,5.4043 -0.7142,7.2444 -2.20313,1.9536 -13.71846,5.2401 -20.53333,5.8603 -6.26823,0.5704 -19.22469,-2.1837 -24.83654,-5.2793 -6.65864,-3.6732 -7.33739,-5.7226 -6.81347,-20.5723 0.36283,-10.2838 0.99916,-14.349 3.23695,-20.6795 3.89545,-11.0197 10.13454,-22.1741 19.00182,-33.9717 10.73304,-14.2799 17.26988,-21.0316 30.05699,-31.0447 14.73573,-11.539 23.13288,-15.1451 36.95425,-15.8698 13.83847,-0.7256 16.78227,0.1878 21.06666,6.5365 2.97978,4.4154 3.46667,6.0596 3.46667,11.7061 0,3.6131 -0.93039,9.6788 -2.06752,13.4795 -3.12796,10.4545 -11.06738,33.5381 -16.3905,47.6548 -5.0145,13.2982 -7.8097,23.4766 -6.74075,24.5455 0.3529,0.3529 5.1033,-2.3043 9.06997,-5.8297 13.53199,-12.0265 15.52788,-13.003 37.27509,-18.2364 4.64771,-1.1184 5.77245,-2.5797 8.00304,-4.7416 2.74288,-2.6586 3.88926,-3.0765 7.67975,-2.8001 2.29532,0.2956 5.1774,1.3939 6.61389,3.2822 1.98198,2.7509 3.68253,6.3664 3.68637,9.4801 0.003,2.5043 -1.44359,4.5665 -7.23513,10.3138 -7.13947,7.0847 -7.23902,7.2585 -7.23902,12.6374 0,4.7807 0.4469,5.9488 3.61951,9.4604 3.91985,4.3389 4.27692,5.835 2.38402,9.9895 -1.61124,3.5364 -5.50247,3.524 -14.61233,5.2964 -6.99772,1.3615 -5.64103,1.3282 -8.28344,-0.5834 -1.54111,-1.1151 -4.17602,-2.0273 -5.85535,-2.0273 -4.8473,0 -18.31525,-0.8868 -21.62488,-2.5983 -1.66115,-0.859 -3.79817,-2.749 -4.74891,-4.2 -2.24902,-3.4324 -4.61903,-2.7789 -10.05454,1.3987 -5.44659,4.1861 -8.76261,10.7836 -12.52506,24.9196 -3.61472,13.581 -12.96303,38.354 -19.03696,50.4479 -4.71882,9.3958 -12.73578,21.632 -24.39212,33.8772 -6.11295,6.4218 -15.14919,14.2192 -21.08975,18.6494 -12.94513,9.6539 -20.69235,11.1616 -30.65618,7.6385 z m 21.3683,-14.3314 c 7.91439,-2.9937 16.30981,-9.5946 22.06668,-16.126 10.81021,-12.733 19.89901,-26.837 27.47068,-46.6736 3.17281,-8.3123 8.91514,-28.3736 8.91514,-31.1458 0,-1.8138 -0.24041,-1.8508 -2.93333,-0.4512 -7.10847,3.6944 -51.24962,45.8013 -60.79407,57.9925 -5.09018,6.5016 -10.93927,20.7776 -10.93927,26.6995 0,4.4008 1.14868,6.3821 5.30401,9.1489 3.13003,2.0841 3.92044,3.1996 10.91016,0.5557 z m 126.11054,-134.395 c 1.93046,-2.1331 5.90321,-12.6295 5.20667,-13.7565 -0.59901,-0.9692 -6.01944,0.6542 -10.05652,3.012 -2.92174,1.7064 -7.94073,7.7193 -7.94073,9.5133 0,0.9997 5.26689,2.9118 8.37141,3.0391 1.47599,0.06 3.46462,-0.753 4.41917,-1.8079 z m 403.74655,144.3324 c -7.15814,-6.0232 -8.3393,-16.5236 -3.10361,-27.591 1.74141,-3.6808 3.19039,-8.1937 3.22006,-10.0286 0.0296,-1.8348 2.91253,-11.6493 6.40641,-21.81 7.86702,-22.8781 8.19405,-24.5637 5.17532,-26.6781 -1.38226,-0.9682 -3.82547,-1.4472 -6.17027,-1.2097 -17.87066,1.8098 -25.24088,2.9037 -26.67203,3.9586 -2.0621,1.5197 -3.4355,4.0605 -7.21462,13.3469 -2.04339,5.0212 -4.44033,10.6617 -6.74983,13.6713 -1.4068,1.8333 -2.8136,3.6665 -4.2204,5.4997 -2.34309,3.0534 -7.46159,8.3018 -9.22602,8.3018 -0.63824,0 -2.60471,-1.4444 -4.36996,-3.2095 -2.99139,-2.9914 -3.17909,-3.6312 -2.76084,-9.4122 0.30856,-4.2659 1.5367,-8.3462 3.93335,-13.0681 1.91664,-3.776 3.16747,-7.3787 2.77973,-8.0061 -0.76693,-1.241 -11.7915,-1.3469 -16.94285,-0.1628 -1.74182,0.4005 -4.56505,0.3511 -6.27372,-0.1096 -4.44217,-1.1977 -11.14987,-8.0584 -11.12126,-11.375 0.0391,-4.5512 3.68812,-11.0587 8.54252,-15.2349 6.12583,-5.27 21.03655,-14.46 31.83182,-19.619 10.66164,-5.0951 18.87786,-12.105 21.34839,-18.2138 2.60038,-6.4297 3.17423,-19.802 1.56522,-36.4722 l -1.38987,-14.3989 8.66772,-8.1269 c 4.7672,-4.4697 10.19578,-8.8519 12.06343,-9.7381 1.86755,-0.8863 8.47053,-2.2013 14.6732,-2.9223 13.67657,-1.5897 15.08998,-0.9841 14.28895,6.1232 -0.77833,6.9047 -2.92362,9.1352 -13.81622,14.3647 l -9.99701,4.7995 -1.14759,5.6212 c -0.63117,3.0916 -1.85773,12.0343 -2.72568,19.8725 -0.86796,7.8382 -2.02537,16.9521 -2.5721,20.2534 -0.93931,5.6723 -0.0296,12.7679 1.89901,14.8186 0.39503,0.42 2.59437,-1.1695 4.88734,-3.5321 6.00717,-6.1896 10.33375,-8.155 31.31118,-14.2234 2.6501,-0.7666 4.78272,-7.2917 6.16394,-18.8598 1.3013,-10.8992 0.88864,-16.799 -1.68503,-24.0938 -1.51739,-4.3005 -1.49395,-4.4064 2.14677,-9.6925 6.33209,-9.1939 9.83358,-11.6594 30.68465,-21.6059 20.82109,-9.9322 24.44841,-10.9023 30.01052,-8.026 3.44447,1.7812 4.29807,3.5034 4.29807,8.6716 0,8.4588 -5.82793,13.0149 -24.70113,19.311 -7.02598,2.3439 -14.25781,5.1661 -16.07078,6.2717 -3.75019,2.2867 -4.12949,3.9195 -5.1712,22.2619 -0.34625,6.0964 -1.10463,14.498 -1.68513,18.6703 -0.87493,6.2869 -0.7739,8.1309 0.5899,10.768 2.85637,5.5236 2.14771,9.3668 -2.60303,14.1176 -2.33667,2.3366 -4.02433,4.4725 -3.7505,4.7465 0.27394,0.2739 18.69342,-0.039 40.93236,-0.6937 22.23883,-0.6554 57.06068,-1.6713 77.38192,-2.2575 20.32124,-0.5862 52.29051,-1.779 71.04274,-2.6505 33.08097,-1.5375 34.22699,-1.5248 38.53119,0.4239 2.43991,1.1046 6.32608,3.9795 8.63595,6.3885 3.4337,3.5811 3.99193,4.7122 3.06,6.1999 -1.73274,2.7668 -8.07782,2.7826 -18.78548,0.047 -12.05773,-3.0808 -32.76375,-3.2776 -62.36975,-0.5931 -11.03152,1.0003 -48.55984,3.4937 -83.39625,5.5408 -34.83642,2.0472 -63.93274,3.9369 -64.65851,4.1993 -0.75679,0.2736 -1.31956,2.2817 -1.31956,4.7085 0,5.8184 -2.66012,7.3651 -14.04963,8.1688 -4.95605,0.3497 -9.46072,0.9242 -10.01061,1.2767 -2.03497,1.3042 -12.95619,26.6618 -15.58486,36.1857 -1.49491,5.4163 -3.8622,13.6481 -5.26073,18.2931 -1.39852,4.6448 -3.04796,12.6362 -3.66542,17.7587 -1.32062,10.956 -3.44542,16.8499 -7.11518,19.7365 -3.40045,2.6748 -3.66099,2.6491 -7.715,-0.7622 z m -38.79921,-97.2814 c 0.97953,-0.9542 2.09905,-3.0382 2.48795,-4.631 l 0.70708,-2.8958 -4.56463,1.6105 c -6.53447,2.3054 -13.77072,6.7568 -13.00306,7.9989 0.98312,1.5908 12.2829,-0.046 14.37266,-2.0826 z m 53.402,-3.2095 c 4.99735,-0.7114 8.77403,-2.5415 7.55792,-3.6624 -0.25155,-0.2319 -6.854,-0.9791 -14.67204,-1.6603 -7.81803,-0.6813 -14.86121,-1.7754 -15.65147,-2.4314 -0.98819,-0.8201 -1.22023,-2.3474 -0.74297,-4.8911 0.61281,-3.2669 0.50186,-3.5394 -0.95082,-2.3338 -2.48278,2.0606 -7.29211,12.5113 -6.59432,14.3297 0.50101,1.3056 2.87548,1.582 13.0494,1.5189 6.8404,-0.043 14.94229,-0.4336 18.0043,-0.8696 z m 14.88592,-19.7704 c 2.59806,-0.5196 3.29891,-1.1994 3.29891,-3.2001 0,-1.3972 -0.69895,-2.8084 -1.55329,-3.1363 -2.20409,-0.8458 -9.46442,2.9408 -9.87232,5.1488 -0.37348,2.0211 2.12999,2.3869 8.1267,1.1876 z m -1029.96004,108.0107 c -4.5156,-2.284 -5.7667,-6.3525 -4.2863,-13.9389 1.6134,-8.2678 6.8447,-21.6291 11.1268,-28.419 1.8111,-2.8716 10.5216,-12.8053 19.3567,-22.0748 8.8351,-9.2695 18.2542,-19.5576 20.9314,-22.8624 4.7309,-5.8401 4.9052,-6.3193 6.2051,-17.0667 1.8961,-15.6769 4.3043,-22.6913 10.3621,-30.1821 7.3075,-9.0361 17.7594,-16.8166 22.0307,-16.3999 5.3989,0.5267 4.7762,3.354 -2.4368,11.0647 -7.3012,7.805 -10.0492,12.5736 -12.3614,21.451 -1.3994,5.3725 -2.1603,13.1418 -1.2871,13.1418 0.1693,0 2.1907,-0.96 4.4922,-2.1334 4.9573,-2.5274 7.2829,-2.6826 9.01,-0.6015 1.8686,2.2515 0.176,4.7194 -8.5638,12.4869 -4.1665,3.7029 -8.1953,7.9436 -8.953,9.4236 -0.7576,1.4801 -2.6614,8.4377 -4.2307,15.4614 -4.332,19.39 -6.5269,26.5844 -10.2294,33.5312 -4.6218,8.6712 -13.6592,19.3382 -18.8048,22.1956 -3.8895,2.1599 -4.457,2.2237 -6.5759,0.7395 -3.1466,-2.2039 -2.966,-3.0948 1.789,-8.822 8.8254,-10.6299 12.1233,-16.8702 15.1631,-28.6915 1.6169,-6.288 2.7132,-11.7993 2.4362,-12.2475 -0.9279,-1.5015 -5.0005,1.5625 -12.9332,9.7302 -9.2544,9.5286 -15.2448,18.1415 -18.3033,26.3162 -2.869,7.6679 -2.7796,10.2322 0.4624,13.2779 1.4667,1.3779 2.6667,3.2841 2.6667,4.2362 0,2.8603 -10.3029,11.8064 -13.5299,11.7481 -0.4785,-0.01 -2.0701,-0.6227 -3.5368,-1.3646 z m -200.8074,-45.116 c -2.0917,-2.0917 -0.103,-5.481 7.6417,-13.0232 10.5396,-10.264 28.3129,-29.261 30.502,-32.6018 1.8675,-2.8502 1.2158,-5.6507 -1.5168,-6.518 -1.0176,-0.323 -11.1568,2.2988 -22.5317,5.8261 -23.0827,7.1578 -28.8187,7.868 -31.4248,3.8905 -1.8874,-2.8804 -1.0143,-6.4343 2.3175,-9.4341 5.7496,-5.1764 26.0219,-11.3095 48.8248,-14.7711 7.5929,-1.1526 14.8381,-2.7725 16.1006,-3.5996 1.2624,-0.8272 5.4597,-6.2573 9.3273,-12.0669 3.8676,-5.8096 10.0623,-13.6756 13.7661,-17.4801 3.7037,-3.8045 9.0393,-9.6436 11.8568,-12.9759 6.2339,-7.3729 12.8672,-11.4329 20.156,-12.3367 5.2923,-0.6563 5.5309,-0.8321 6.9632,-5.1337 1.6408,-4.9279 8.8154,-13.7272 12.0224,-14.7451 1.1303,-0.3587 3.0332,-0.1288 4.2287,0.511 3.3141,1.7737 2.7712,6.5857 -2.7372,24.2624 -7.333,23.5317 -15.4197,50.9938 -17.6757,60.0259 -1.0991,4.4 -2.46,9.7133 -3.0243,11.8073 -1.3737,5.0976 -7.9975,11.6593 -11.7697,11.6593 -6.8258,0 -6.6826,-3.2761 1.1658,-26.6666 2.8543,-8.5067 5.9798,-20.235 6.9456,-26.0629 0.9658,-5.828 2.4212,-12.788 3.2343,-15.4667 0.8131,-2.6787 1.4836,-5.3537 1.49,-5.9443 0.01,-0.5907 -4.4285,3.2493 -9.8552,8.5333 -8.8395,8.6071 -22.1333,26.1564 -22.1333,29.2184 0,0.6315 1.32,1.4455 2.9333,1.8088 8.735,1.9672 11.6443,2.937 13.3334,4.4446 5.6485,5.0416 -1.3676,8.7646 -20.4262,10.8388 -11.9849,1.3043 -11.5725,0.9939 -24.928,18.7633 -8.1401,10.8304 -13.0663,16.3596 -14.1843,17.3839 -2.8777,2.6364 -1.9006,1.7776 -2.8777,2.6364 -1.6805,1.477 -8.6221,8.5389 -15.1838,13.0647 -5.3935,3.7199 -11.0876,5.6052 -12.5408,4.152 z m 191.1321,-40.2955 c -5.6649,-1.5274 -13.397,-5.8572 -18.5686,-10.398 -6.7423,-5.9198 -7.396,-14.1637 -2.0054,-25.2912 2.0726,-4.2782 4.7234,-7.2474 10.7355,-12.025 9.5694,-7.6045 13.0179,-9.494 17.3275,-9.494 5.1832,0 4.4446,4.116 -1.5054,8.389 -6.0068,4.3137 -11.6306,11.1411 -14.4766,17.575 -2.197,4.9668 -2.0809,7.1027 0.3863,7.1027 1.4877,0 22.1698,-12.6803 25.2948,-15.5084 2.921,-2.6435 2.6137,-5.3511 -1.2996,-11.4494 -3.906,-6.0871 -3.6904,-6.8724 3.3763,-12.2973 3.5524,-2.7272 5.4333,-3.4492 8.3352,-3.2 3.5601,0.3057 3.8989,0.6954 6.7722,7.7884 1.6636,4.1067 3.0273,9.4479 3.0306,11.8694 0.01,2.7339 -0.8054,5.0246 -1.8285,5.9539 -0.9506,0.8634 -2.8519,2.5903 -2.8519,2.5903 0,0 -6.5474,4.9382 -13.9804,8.7705 -10.3593,5.341 -18.0444,11.6853 -17.0969,14.1139 1.2644,3.2414 9.0491,6.5834 16.5917,7.1231 6.1579,0.4406 8.068,0.1138 13.2794,-2.272 6.6441,-3.0418 10.1591,-2.5214 10.1591,1.5041 0,2.5519 -5.7886,6.3372 -9.6996,6.3428 -1.5215,0 -5.5567,0.964 -8.967,2.1374 -6.9712,2.3984 -15.67,2.6535 -23.0087,0.6748 z m -51.1258,-3.8112 c -6.4063,-3.3888 -8.003,-5.9488 -7.965,-12.7702 0.027,-4.8744 0.8957,-7.8734 4.3879,-15.1514 2.3947,-4.9907 7.3569,-18.8843 11.0272,-30.8747 7.0095,-22.8992 8.8689,-27.4794 13.2874,-32.7305 3.344,-3.9741 6.1565,-4.7931 9.1823,-2.6737 1.8727,1.3117 2.2209,2.3749 1.7954,5.4821 -0.6409,4.6802 -12.5862,38.8004 -19.3452,55.2572 -2.6962,6.5646 -4.9022,13.4716 -4.9022,15.3487 0,1.9253 1.3948,5.6797 3.2,8.6136 3.8249,6.2163 3.9509,7.7217 0.8293,9.9081 -3.0961,2.1686 -6.8783,2.034 -11.4971,-0.4092 z m 724.23963,-17.5138 c -8.82489,-2.7159 -14.22597,-12.1824 -17.68718,-28.5531 -1.53274,-7.2494 -4.44236,-24.7124 -2.24454,-29.3439 2.84498,-5.9954 6.77422,-8.9594 14.35582,-6.9179 8.18606,2.2043 9.71868,8.0861 12.1344,23.8205 l 0.8753,5.7012 10.10661,-8.7076 c 12.56118,-17.5865 15.61925,-21.3591 18.3905,-22.6872 3.78356,-1.8135 9.82281,-0.6075 13.03267,2.6023 5.57144,5.5715 1.5025,13.4809 -18.2316,35.4395 -8.61474,9.5859 -11.98389,14.1163 -12.7761,17.1798 -1.73009,6.6902 -4.54468,9.2179 -8.29057,11.2268 -4.12001,2.2096 -3.09973,2.2603 -9.66531,0.2396 z m 199.02405,2.8142 c -6.01724,-1.1821 -8.79422,-3.091 -12.65045,-8.6958 -4.42232,-6.4276 -4.79465,-8.867 -2.36819,-15.5157 1.15195,-3.1565 3.32582,-10.4491 4.83071,-16.2057 1.50499,-5.7567 4.4489,-13.8186 6.54215,-17.9154 6.9013,-13.5068 10.71516,-23.4789 12.98345,-33.9484 2.62861,-12.1326 5.31464,-18.7178 8.28248,-20.3062 4.64334,-2.485 13.80545,-0.3049 15.3214,3.6456 3.10778,8.0987 -4.14887,34.0175 -15.47695,55.2795 -5.43564,8.4912 -6.50254,11.4765 -7.46574,23.7115 0.0632,5.2165 0.71155,10.9073 1.44165,12.6461 3.52163,8.3873 3.1042,15.1764 -1.07038,17.4107 -2.20559,1.1804 -3.9105,1.1629 -10.37013,-0.1062 z m -630.89038,-6.2723 c -4.319,-5.4907 -4.9814,-18.1954 -1.3739,-26.3509 4.1617,-9.408 19.5882,-21.5868 28.9307,-22.8399 10.6262,-1.4253 9.9045,9.0323 -0.7408,10.7346 -3.3473,0.5352 -5.2877,1.7742 -8.5078,5.4325 -7.3928,8.3986 -8.8172,18.7973 -3.437,25.0917 4.1939,4.9065 4.0557,7.2401 -0.5424,9.1614 -6.0317,2.5202 -11.7665,2.0282 -14.3288,-1.2294 z m -127.2657,-0.3663 c -1.5914,-1.2564 -3.9393,-3.753 -5.2175,-5.548 l -2.3239,-3.2636 2.465,-6.0236 c 5.3713,-13.1257 16.3158,-25.4596 27.4353,-30.9183 5.2024,-2.5539 5.9504,-2.6544 10.5662,-1.4198 4.7222,1.263 5.1041,1.1979 7.7346,-1.3173 1.522,-1.4552 3.9672,-3.0956 5.4338,-3.6453 4.601,-1.7243 10.6667,2.7398 10.6667,7.8503 0,0.979 -2.1987,4.2255 -4.8859,7.2144 -5.3413,5.9408 -8.3099,11.1106 -9.4725,16.4965 -0.7025,3.2544 -0.5001,3.5894 3.0698,5.081 2.1021,0.8783 3.8219,2.1608 3.8219,2.8499 0,2.5037 -4.8607,8.2594 -8.8854,10.5214 -4.483,2.5196 -11.042,2.425 -14.2109,-0.205 -2.3019,-1.9104 -1.3707,-9.1251 2.9767,-23.064 1.8755,-6.013 3.0945,-11.2481 2.709,-11.6336 -1.3983,-1.3983 -9.3847,3.2826 -13.9766,8.1917 -7.4265,7.9395 -9.0423,16.5175 -3.8128,20.2412 5.9097,4.208 2.7635,9.549 -6.1225,10.3938 -4.0547,0.3855 -5.6603,0.023 -7.971,-1.8017 z m 87.9069,-0.2721 c -0.704,-0.704 -1.28,-2.664 -1.28,-4.3556 0,-3.4373 4.9435,-16.456 8.4046,-22.1336 1.2397,-2.0336 2.2559,-4.5032 2.258,-5.4879 0.01,-2.7376 -3.0015,-5.1429 -6.4306,-5.1429 -3.8519,0 -6.8496,3.1163 -9.1516,9.5137 -7.1206,19.7882 -14.3067,28.4334 -19.4004,23.3396 -1.9059,-1.9058 -1.6408,-3.5865 2.5813,-16.3658 4.5563,-13.7909 7.7076,-20.3445 12.295,-25.5693 6.782,-7.7242 12.6869,-8.5034 24.1597,-3.188 4.3128,1.9981 6.0003,3.4854 7.1927,6.3393 2.3885,5.7166 1.9708,8.1642 -3.6986,21.6726 -2.8911,6.8885 -5.5851,13.8522 -5.9865,15.4748 -1.3147,5.3131 -7.9529,8.8938 -10.9436,5.9031 z m 714.45334,-1.9561 c -9.95979,-6.1752 -14.13333,-13.062 -12.66837,-20.9039 1.51338,-8.1004 9.13685,-16.514 17.15008,-23.8274 9.36371,-8.5461 17.61519,-12.9858 25.6758,-13.8146 10.78747,-1.1093 13.1745,2.5667 16.75199,25.7986 0.99422,6.456 1.52405,12.8683 1.17737,14.2495 -0.34668,1.3813 -3.67208,5.5504 -7.38965,9.265 -8.15753,8.1506 -13.53225,10.455 -26.0038,11.1486 -7.8876,0.4388 -11.41171,0.1189 -14.69342,-1.9158 z m 21.69016,-16.3078 c 6.62577,-2.7371 7.78234,-4.2954 7.78234,-10.4856 0,-7.3355 -1.80114,-8.896 -6.09647,-5.2818 -3.5948,3.0249 -7.62696,10.852 -7.62696,14.8055 0,3.1149 0.52413,3.1998 5.94109,0.9619 z m -661.0964,15.0399 c -2.1349,-3.048 -2.114,-9.5766 0.054,-16.9024 3.8366,-12.9629 18.9706,-44.501 29.813,-66.1053 1.3795,-2.7488 2.9724,-5.8133 4.4768,-8.0679 4.5328,-6.7781 9.5674,-12.0945 12.5147,-13.215 3.2014,-1.2172 7.4261,0.1237 8.402,2.6668 1.4298,3.726 0.5033,6.0324 -4.7568,11.8407 -9.072,10.0176 -15.7093,22.14 -26.5892,48.5626 -6.6987,16.2683 -9.6931,26.7351 -8.8518,30.9415 0.8072,4.0362 -1.2108,7.851 -5.5824,10.5528 -4.4322,2.7392 -7.4308,2.6526 -9.4806,-0.2738 z m 53.974,1.3572 c -1.961,-0.49 -4.0324,-1.3578 -4.603,-1.9284 -1.2049,-1.2049 3.6781,-16.4769 8.5872,-26.8571 1.7397,-3.6786 2.9196,-7.3229 2.622,-8.0984 -0.2976,-0.7755 -2.5435,-1.7426 -4.9909,-2.1491 -5.1827,-0.8609 -10.3164,-3.2663 -10.3164,-4.8339 0,-0.6007 0.7287,-2.5015 1.6194,-4.2238 2.1423,-4.1428 6.0629,-5.0322 12.346,-2.8006 6.4764,2.3002 9.3133,2.2334 15.3679,-0.3619 6.0016,-2.5726 8.6226,-2.6958 9.4859,-0.4461 1.3219,3.4448 0.5464,5.7113 -3.3526,9.7982 -6.4351,6.7455 -14.3318,20.9246 -13.9348,25.0212 0.3439,3.5485 1.2109,4.1137 8.6015,5.6077 4.7188,0.9539 3.5787,6.9812 -1.8667,9.8683 -2.9945,1.5877 -15.2971,2.4705 -19.5655,1.4039 z m 49.9875,-1.1891 c -3.7941,-1.592 -6.3591,-4.1629 -8.6688,-8.6883 -4.1345,-8.1008 -1.9414,-14.8847 8.0594,-24.93 9.0067,-9.0468 16.386,-13.6391 21.6009,-13.4431 2.0447,0.077 5.6321,-0.8369 7.9721,-2.0307 3.8413,-1.9597 4.4893,-2.0166 6.6731,-0.5857 3.1745,2.08 5.2688,9.7805 4.6592,17.1315 -0.6415,7.7352 -4.239,12.9591 -12.1768,17.6822 -3.4509,2.0533 -8.7155,6.2884 -11.699,9.4113 -4.387,4.5918 -6.2234,5.7626 -9.6,6.1203 -2.2965,0.2433 -5.3655,-0.057 -6.8201,-0.6675 z m 17.1872,-14.0641 c 1.3316,-1.9067 4.2101,-5.6267 6.3966,-8.2667 6.7576,-8.1589 6.5877,-14.6785 -0.2897,-11.1221 -1.6189,0.8372 -4.8376,1.5221 -7.1526,1.5221 -3.4829,0 -4.7804,0.6506 -7.5196,3.7705 -4.4592,5.0787 -4.1477,10.3257 0.9135,15.3869 3.0327,3.0327 4.846,2.7268 7.6518,-1.2907 z m 363.57474,7.1378 c -4.28956,-1.2399 -6.79528,-9.0267 -7.45516,-14.2039 -0.27981,-2.1951 0.21801,-7.0534 1.10627,-10.796 0.88826,-3.7426 3.49155,-6.8442 3.37006,-6.8924 -0.1215,-0.048 -2.87488,-2.0445 -6.11863,-4.436 -8.60143,-6.3418 -14.94512,-10.3547 -11.84217,-17.7812 3.36992,-8.0653 10.73522,-8.8334 21.42656,-2.2343 5.81222,3.5876 6.58161,3.7861 12.13582,3.1334 5.62744,-0.6614 6.09448,-0.5326 9.14899,2.5218 2.87017,2.8702 3.21883,3.9002 3.21883,9.509 0,5.9374 -0.25731,6.5773 -4.58892,11.4099 -4.41472,4.9254 -8.05719,10.7505 -8.05719,12.8853 0,0.5611 1.6598,2.046 3.68844,3.2998 5.89717,3.6447 4.57453,9.2811 -2.98309,12.7125 -4.7867,2.1734 -7.8421,2.3776 -13.04981,0.8721 z m 42.59286,-5.9887 c -4.51524,-4.6241 -4.94109,-7.9691 -2.18371,-17.1527 1.65745,-5.5202 2.84945,-7.6962 4.27417,-11.5442 2.3175,-6.2595 7.31738,-14.0315 11.38696,-16.8314 l 4.61134,-3.1727 -4.14557,-7.0941 c -4.89984,-8.3849 -5.18205,-12.0022 -1.50281,-19.2629 3.67005,-7.2425 6.46605,-8.8224 15.3219,-8.6582 11.96777,0.2219 16.40298,3.6023 15.4362,11.7653 -1.0046,8.4823 -10.11845,24.3089 -13.99843,24.3089 -2.01211,0 -1.88256,2.5753 0.21721,4.318 2.52811,2.098 1.38787,9.6258 -3.81555,25.1896 -4.85605,14.5249 -8.16134,19.2638 -14.70349,21.0813 -5.75656,1.5993 -6.71107,1.3411 -10.89822,-2.9469 z m -712.4434,-47.5058 c -5.2418,-1.9274 -6.7801,-7.2182 -3.7837,-13.0127 2.9576,-5.7193 11.5619,-6.7922 15.0086,-1.8714 2.0158,2.878 1.9906,5.3431 -0.096,9.3778 -1.3062,2.5259 -7.4889,6.6655 -9.2283,6.1788 -0.1655,-0.046 -1.0209,-0.349 -1.9009,-0.6725 z"
       id="path825"
       inkscape:connector-curvature="0"
       sodipodi:nodetypes="ccccscccccscccccccscccccscssscsccccccccccsccccscccscsccsccsccscscccsccccccccccssscccccccsccccscccccccccccccccssccccccccsccccccccsccccccccccccccccscccccccsccccccsccccscsccccccccccccccsccsccccccccscccccccccsccsccsccccsscsscccsccsccccccscccccsccscccsccccsccccccsccccccscccscccscccccccccccccccccccccccscccscccsscccssccsccccccccsscccccccscscscccsccccscccccscscsccccccsccccccccccccccccscsccccccccccscsccccssccccscsccscccccccc" />
  </g>
</svg>
